<svg width="481" height="61" viewBox="0 0 481 61" fill="none" xmlns="http://www.w3.org/2000/svg">
<g clip-path="url(#clip0_1_13)">
<path d="M87.2829 27.3568V11.2779H95.2629C97.0671 11.2779 98.6554 11.6071 100.028 12.2656C101.4 12.9087 102.472 13.8275 103.243 15.022C104.014 16.2164 104.399 17.6405 104.399 19.2944C104.399 20.9635 104.014 22.403 103.243 23.6127C102.472 24.8072 101.4 25.7336 100.028 26.3921C98.6554 27.0353 97.0671 27.3568 95.2629 27.3568H87.2829ZM92.7417 23.1304H95.0316C95.8026 23.1304 96.4734 22.9849 97.0439 22.6939C97.6299 22.403 98.0848 21.9742 98.4086 21.4076C98.7325 20.8257 98.8944 20.1213 98.8944 19.2944C98.8944 18.4828 98.7325 17.7937 98.4086 17.2271C98.0848 16.6605 97.6299 16.2317 97.0439 15.9408C96.4734 15.6498 95.8026 15.5043 95.0316 15.5043H92.7417V23.1304Z" fill="#4493F8"/>
<path d="M114.882 27.7244C113.571 27.7244 112.353 27.5176 111.227 27.1042C110.117 26.6907 109.153 26.1088 108.336 25.3585C107.518 24.5928 106.878 23.697 106.416 22.671C105.969 21.645 105.745 20.5271 105.745 19.3173C105.745 18.0923 105.969 16.9744 106.416 15.9637C106.878 14.9377 107.518 14.0496 108.336 13.2992C109.153 12.5336 110.117 11.944 111.227 11.5305C112.353 11.1171 113.571 10.9103 114.882 10.9103C116.208 10.9103 117.426 11.1171 118.536 11.5305C119.646 11.944 120.61 12.5336 121.427 13.2992C122.245 14.0496 122.877 14.9377 123.324 15.9637C123.787 16.9744 124.018 18.0923 124.018 19.3173C124.018 20.5271 123.787 21.645 123.324 22.671C122.877 23.697 122.245 24.5928 121.427 25.3585C120.61 26.1088 119.646 26.6907 118.536 27.1042C117.426 27.5176 116.208 27.7244 114.882 27.7244ZM114.882 23.3371C115.39 23.3371 115.861 23.2452 116.292 23.0615C116.74 22.8777 117.125 22.6174 117.449 22.2805C117.788 21.9283 118.05 21.5072 118.235 21.0171C118.42 20.5118 118.513 19.9452 118.513 19.3173C118.513 18.6895 118.42 18.1306 118.235 17.6405C118.05 17.1352 117.788 16.7141 117.449 16.3772C117.125 16.025 116.74 15.757 116.292 15.5732C115.861 15.3895 115.39 15.2976 114.882 15.2976C114.373 15.2976 113.895 15.3895 113.447 15.5732C113.016 15.757 112.63 16.025 112.291 16.3772C111.967 16.7141 111.713 17.1352 111.528 17.6405C111.343 18.1306 111.25 18.6895 111.25 19.3173C111.25 19.9452 111.343 20.5118 111.528 21.0171C111.713 21.5072 111.967 21.9283 112.291 22.2805C112.63 22.6174 113.016 22.8777 113.447 23.0615C113.895 23.2452 114.373 23.3371 114.882 23.3371Z" fill="#4493F8"/>
<path d="M125.999 27.3568V11.2779H130.487L138.721 21.0631H136.639V11.2779H141.959V27.3568H137.472L129.238 17.5716H131.319V27.3568H125.999Z" fill="#4493F8"/>
<path d="M144.358 18.1689L144.011 11.2779H148.406L148.059 18.1689H144.358Z" fill="#4493F8"/>
<path d="M154.43 27.3568V15.4814H149.688V11.2779H164.631V15.4814H159.889V27.3568H154.43Z" fill="#4493F8"/>
<path d="M178.072 18.1229H185.196V22.2116H178.072V18.1229ZM178.442 27.3568H172.983V11.2779H186.144V15.3665H178.442V27.3568Z" fill="#4493F8"/>
<path d="M196.245 27.7244C194.934 27.7244 193.716 27.5176 192.59 27.1042C191.48 26.6907 190.516 26.1088 189.699 25.3585C188.882 24.5928 188.242 23.697 187.779 22.671C187.332 21.645 187.108 20.5271 187.108 19.3173C187.108 18.0923 187.332 16.9744 187.779 15.9637C188.242 14.9377 188.882 14.0496 189.699 13.2992C190.516 12.5336 191.48 11.944 192.59 11.5305C193.716 11.1171 194.934 10.9103 196.245 10.9103C197.571 10.9103 198.789 11.1171 199.899 11.5305C201.01 11.944 201.973 12.5336 202.791 13.2992C203.608 14.0496 204.24 14.9377 204.687 15.9637C205.15 16.9744 205.381 18.0923 205.381 19.3173C205.381 20.5271 205.15 21.645 204.687 22.671C204.24 23.697 203.608 24.5928 202.791 25.3585C201.973 26.1088 201.01 26.6907 199.899 27.1042C198.789 27.5176 197.571 27.7244 196.245 27.7244ZM196.245 23.3371C196.754 23.3371 197.224 23.2452 197.656 23.0615C198.103 22.8777 198.488 22.6174 198.812 22.2805C199.151 21.9283 199.414 21.5072 199.599 21.0171C199.784 20.5118 199.876 19.9452 199.876 19.3173C199.876 18.6895 199.784 18.1306 199.599 17.6405C199.414 17.1352 199.151 16.7141 198.812 16.3772C198.488 16.025 198.103 15.757 197.656 15.5732C197.224 15.3895 196.754 15.2976 196.245 15.2976C195.736 15.2976 195.258 15.3895 194.811 15.5732C194.379 15.757 193.993 16.025 193.654 16.3772C193.33 16.7141 193.076 17.1352 192.891 17.6405C192.706 18.1306 192.613 18.6895 192.613 19.3173C192.613 19.9452 192.706 20.5118 192.891 21.0171C193.076 21.5072 193.33 21.9283 193.654 22.2805C193.993 22.6174 194.379 22.8777 194.811 23.0615C195.258 23.2452 195.736 23.3371 196.245 23.3371Z" fill="#4493F8"/>
<path d="M207.363 27.3568V11.2779H215.157C216.669 11.2779 217.972 11.5229 219.067 12.0129C220.177 12.5029 221.033 13.2073 221.634 14.1261C222.235 15.0296 222.536 16.1016 222.536 17.3419C222.536 18.5823 222.235 19.6542 221.634 20.5577C221.033 21.4459 220.177 22.1273 219.067 22.6021C217.972 23.0768 216.669 23.3141 215.157 23.3141H210.393L212.821 21.086V27.3568H207.363ZM217.054 27.3568L213.076 21.4995H218.858L222.883 27.3568H217.054ZM212.821 21.6833L210.393 19.2255H214.811C215.566 19.2255 216.121 19.057 216.476 18.7201C216.846 18.3832 217.031 17.9238 217.031 17.3419C217.031 16.76 216.846 16.3006 216.476 15.9637C216.121 15.6268 215.566 15.4584 214.811 15.4584H210.393L212.821 13.0006V21.6833Z" fill="#4493F8"/>
<path d="M232.994 27.7244C231.683 27.7244 230.473 27.5253 229.362 27.1271C228.267 26.7137 227.311 26.1318 226.494 25.3814C225.692 24.6311 225.068 23.7429 224.621 22.7169C224.173 21.6909 223.95 20.5577 223.95 19.3173C223.95 18.077 224.173 16.9438 224.621 15.9178C225.068 14.8918 225.7 14.0036 226.517 13.2533C227.335 12.5029 228.298 11.9287 229.409 11.5305C230.534 11.1171 231.768 10.9103 233.109 10.9103C234.713 10.9103 236.14 11.1783 237.389 11.7143C238.653 12.2503 239.694 13.0159 240.511 14.0113L237.018 17.0663C236.51 16.4844 235.954 16.048 235.353 15.757C234.767 15.4507 234.112 15.2976 233.387 15.2976C232.786 15.2976 232.238 15.3895 231.745 15.5732C231.267 15.757 230.858 16.025 230.519 16.3772C230.18 16.7294 229.917 17.1505 229.732 17.6405C229.547 18.1306 229.455 18.6895 229.455 19.3173C229.455 19.9146 229.547 20.4658 229.732 20.9712C229.917 21.4612 230.18 21.8823 230.519 22.2345C230.858 22.5867 231.259 22.8624 231.722 23.0615C232.2 23.2452 232.732 23.3371 233.318 23.3371C233.934 23.3371 234.536 23.2376 235.122 23.0385C235.708 22.8241 236.332 22.4642 236.995 21.9589L240.049 25.68C239.062 26.3385 237.936 26.8438 236.671 27.196C235.407 27.5483 234.181 27.7244 232.994 27.7244ZM235.307 24.9909V18.8809H240.049V25.68L235.307 24.9909Z" fill="#4493F8"/>
<path d="M247.371 17.2501H254.587V21.1549H247.371V17.2501ZM247.741 23.2682H255.836V27.3568H242.374V11.2779H255.536V15.3665H247.741V23.2682Z" fill="#4493F8"/>
<path d="M261.454 27.3568V15.4814H256.712V11.2779H271.654V15.4814H266.912V27.3568H261.454Z" fill="#4493F8"/>
<path d="M87.2829 56.0693V39.9903H92.7417V56.0693H87.2829Z" fill="#4493F8"/>
<path d="M100.458 46.8354H107.582V50.924H100.458V46.8354ZM100.828 56.0693H95.3695V39.9903H108.531V44.079H100.828V56.0693Z" fill="#4493F8"/>
<path d="M121.353 56.0693V49.0175L122.602 52.2563L115.247 39.9903H121.006L125.979 48.3744H122.626L127.645 39.9903H132.919L125.609 52.2563L126.812 49.0175V56.0693H121.353Z" fill="#4493F8"/>
<path d="M141.4 56.4368C140.089 56.4368 138.871 56.2301 137.746 55.8166C136.635 55.4032 135.672 54.8213 134.854 54.0709C134.037 53.3052 133.397 52.4094 132.934 51.3834C132.487 50.3574 132.264 49.2396 132.264 48.0298C132.264 46.8047 132.487 45.6869 132.934 44.6762C133.397 43.6502 134.037 42.762 134.854 42.0117C135.672 41.246 136.635 40.6564 137.746 40.243C138.871 39.8295 140.089 39.6228 141.4 39.6228C142.726 39.6228 143.945 39.8295 145.055 40.243C146.165 40.6564 147.129 41.246 147.946 42.0117C148.763 42.762 149.396 43.6502 149.843 44.6762C150.305 45.6869 150.537 46.8047 150.537 48.0298C150.537 49.2396 150.305 50.3574 149.843 51.3834C149.396 52.4094 148.763 53.3052 147.946 54.0709C147.129 54.8213 146.165 55.4032 145.055 55.8166C143.945 56.2301 142.726 56.4368 141.4 56.4368ZM141.4 52.0495C141.909 52.0495 142.379 51.9577 142.811 51.7739C143.258 51.5902 143.644 51.3298 143.968 50.9929C144.307 50.6407 144.569 50.2196 144.754 49.7296C144.939 49.2242 145.032 48.6577 145.032 48.0298C145.032 47.402 144.939 46.843 144.754 46.353C144.569 45.8477 144.307 45.4265 143.968 45.0897C143.644 44.7374 143.258 44.4695 142.811 44.2857C142.379 44.1019 141.909 44.0101 141.4 44.0101C140.891 44.0101 140.413 44.1019 139.966 44.2857C139.534 44.4695 139.149 44.7374 138.81 45.0897C138.486 45.4265 138.231 45.8477 138.046 46.353C137.861 46.843 137.769 47.402 137.769 48.0298C137.769 48.6577 137.861 49.2242 138.046 49.7296C138.231 50.2196 138.486 50.6407 138.81 50.9929C139.149 51.3298 139.534 51.5902 139.966 51.7739C140.413 51.9577 140.891 52.0495 141.4 52.0495Z" fill="#4493F8"/>
<path d="M160.267 56.4368C157.784 56.4368 155.849 55.7707 154.461 54.4384C153.073 53.1062 152.379 51.2379 152.379 48.8338V39.9903H157.838V48.673C157.838 49.898 158.062 50.7709 158.509 51.2915C158.956 51.7969 159.557 52.0495 160.313 52.0495C161.084 52.0495 161.685 51.7969 162.117 51.2915C162.564 50.7709 162.788 49.898 162.788 48.673V39.9903H168.154V48.8338C168.154 51.2379 167.46 53.1062 166.072 54.4384C164.685 55.7707 162.749 56.4368 160.267 56.4368Z" fill="#4493F8"/>
<path d="M177.591 56.0693V39.9903H183.05V51.8658H190.359V56.0693H177.591Z" fill="#4493F8"/>
<path d="M191.867 56.0693V39.9903H197.326V56.0693H191.867Z" fill="#4493F8"/>
<path d="M204.834 52.6238L204.533 46.6746L210.64 39.9903H216.584L209.738 47.4785L206.708 50.5565L204.834 52.6238ZM199.954 56.0693V39.9903H205.32V56.0693H199.954ZM210.594 56.0693L205.829 49.8215L209.368 46.1003L216.908 56.0693H210.594Z" fill="#4493F8"/>
<path d="M222.636 45.9625H229.853V49.8674H222.636V45.9625ZM223.006 51.9806H231.102V56.0693H217.64V39.9903H230.801V44.079H223.006V51.9806Z" fill="#4493F8"/>
<path d="M233.204 56.0693V39.9903H241.184C242.988 39.9903 244.576 40.3196 245.948 40.978C247.321 41.6212 248.393 42.54 249.164 43.7344C249.935 44.9289 250.32 46.353 250.32 48.0068C250.32 49.676 249.935 51.1154 249.164 52.3252C248.393 53.5196 247.321 54.4461 245.948 55.1046C244.576 55.7477 242.988 56.0693 241.184 56.0693H233.204ZM238.662 51.8428H240.952C241.723 51.8428 242.394 51.6973 242.965 51.4064C243.551 51.1154 244.005 50.6867 244.329 50.1201C244.653 49.5382 244.815 48.8338 244.815 48.0068C244.815 47.1952 244.653 46.5061 244.329 45.9395C244.005 45.3729 243.551 44.9442 242.965 44.6532C242.394 44.3623 241.723 44.2168 240.952 44.2168H238.662V51.8428Z" fill="#4493F8"/>
<path d="M259.248 56.0693V39.9903H264.707V56.0693H259.248Z" fill="#4493F8"/>
<path d="M270.85 56.0693V44.1938H266.109V39.9903H281.051V44.1938H276.309V56.0693H270.85Z" fill="#4493F8"/>
<path d="M281.147 59.7445L283.09 53.2899L283.853 56.1841C282.959 56.1841 282.226 55.9315 281.656 55.4261C281.085 54.9055 280.8 54.2011 280.8 53.3129C280.8 52.4094 281.085 51.6973 281.656 51.1767C282.242 50.6407 282.974 50.3727 283.853 50.3727C284.732 50.3727 285.457 50.6407 286.027 51.1767C286.613 51.6973 286.906 52.4094 286.906 53.3129C286.906 53.5579 286.883 53.8029 286.837 54.0479C286.806 54.2929 286.729 54.5916 286.605 54.9438C286.482 55.2807 286.282 55.7401 286.004 56.322L284.385 59.7445H281.147Z" fill="#4493F8"/>
<path d="M304.012 56.4368C302.701 56.4368 301.49 56.2377 300.38 55.8396C299.285 55.4261 298.329 54.8442 297.512 54.0939C296.71 53.3435 296.085 52.4554 295.638 51.4294C295.191 50.4034 294.967 49.2702 294.967 48.0298C294.967 46.7894 295.191 45.6562 295.638 44.6303C296.085 43.6043 296.718 42.7161 297.535 41.9657C298.352 41.2154 299.316 40.6411 300.426 40.243C301.552 39.8295 302.786 39.6228 304.127 39.6228C305.731 39.6228 307.157 39.8908 308.406 40.4267C309.671 40.9627 310.712 41.7284 311.529 42.7237L308.036 45.7787C307.527 45.1968 306.972 44.7604 306.371 44.4695C305.785 44.1632 305.129 44.0101 304.405 44.0101C303.803 44.0101 303.256 44.1019 302.762 44.2857C302.284 44.4695 301.876 44.7374 301.537 45.0897C301.197 45.4419 300.935 45.863 300.75 46.353C300.565 46.843 300.473 47.402 300.473 48.0298C300.473 48.627 300.565 49.1783 300.75 49.6836C300.935 50.1737 301.197 50.5948 301.537 50.947C301.876 51.2992 302.277 51.5748 302.739 51.7739C303.217 51.9577 303.749 52.0495 304.335 52.0495C304.952 52.0495 305.554 51.95 306.139 51.7509C306.725 51.5366 307.35 51.1767 308.013 50.6714L311.066 54.3925C310.079 55.051 308.954 55.5563 307.689 55.9085C306.425 56.2607 305.199 56.4368 304.012 56.4368ZM306.325 53.7034V47.5934H311.066V54.3925L306.325 53.7034Z" fill="#4493F8"/>
<path d="M313.392 56.0693V39.9903H318.851V56.0693H313.392Z" fill="#4493F8"/>
<path d="M326.568 56.0693L319.721 39.9903H325.596L331.17 53.5656H327.678L333.414 39.9903H338.78L331.934 56.0693H326.568Z" fill="#4493F8"/>
<path d="M344.32 45.9625H351.536V49.8674H344.32V45.9625ZM344.69 51.9806H352.785V56.0693H339.324V39.9903H352.485V44.079H344.69V51.9806Z" fill="#4493F8"/>
<path d="M361.822 56.0693V39.9903H367.28V56.0693H361.822Z" fill="#4493F8"/>
<path d="M373.424 56.0693V44.1938H368.682V39.9903H383.625V44.1938H378.883V56.0693H373.424Z" fill="#4493F8"/>
<path d="M390.219 56.0693L397.297 39.9903H402.663L409.741 56.0693H404.097L398.87 42.563H400.998L395.77 56.0693H390.219ZM394.429 53.267L395.817 49.3621H403.265L404.652 53.267H394.429Z" fill="#4493F8"/>
<path d="M423.584 56.4368C422.227 56.4368 420.916 56.2837 419.652 55.9774C418.387 55.6711 417.347 55.273 416.529 54.783L418.287 50.8321C419.058 51.2762 419.914 51.6361 420.855 51.9117C421.811 52.1721 422.736 52.3022 423.63 52.3022C424.155 52.3022 424.563 52.2716 424.856 52.2103C425.165 52.1338 425.388 52.0342 425.527 51.9117C425.666 51.7739 425.735 51.6131 425.735 51.4294C425.735 51.1384 425.573 50.9087 425.249 50.7403C424.926 50.5718 424.494 50.434 423.954 50.3268C423.43 50.2043 422.852 50.0818 422.219 49.9593C421.587 49.8215 420.947 49.6454 420.3 49.431C419.667 49.2166 419.081 48.9333 418.542 48.5811C418.017 48.2289 417.593 47.7695 417.269 47.2029C416.946 46.621 416.784 45.9013 416.784 45.0437C416.784 44.0483 417.061 43.1449 417.616 42.3333C418.187 41.5063 419.027 40.8479 420.138 40.3578C421.263 39.8678 422.659 39.6228 424.324 39.6228C425.419 39.6228 426.498 39.7376 427.562 39.9673C428.627 40.197 429.583 40.5493 430.431 41.024L428.788 44.9518C427.987 44.5537 427.208 44.2551 426.452 44.056C425.712 43.8569 424.987 43.7574 424.278 43.7574C423.754 43.7574 423.337 43.8033 423.029 43.8952C422.721 43.9871 422.497 44.1096 422.358 44.2627C422.235 44.4159 422.173 44.5843 422.173 44.7681C422.173 45.0437 422.335 45.2658 422.659 45.4342C422.983 45.5873 423.407 45.7175 423.931 45.8247C424.471 45.9319 425.057 46.0467 425.689 46.1692C426.337 46.2917 426.977 46.4602 427.609 46.6746C428.241 46.889 428.819 47.1723 429.344 47.5245C429.883 47.8767 430.315 48.3361 430.639 48.9027C430.963 49.4693 431.125 50.1737 431.125 51.0159C431.125 51.996 430.839 52.8994 430.269 53.7264C429.714 54.538 428.881 55.1964 427.771 55.7018C426.66 56.1918 425.265 56.4368 423.584 56.4368Z" fill="#4493F8"/>
<path d="M436.039 56.0693V44.1938H431.297V39.9903H446.239V44.1938H441.498V56.0693H436.039Z" fill="#4493F8"/>
<path d="M445.086 56.0693L452.164 39.9903H457.53L464.608 56.0693H458.964L453.737 42.563H455.865L450.637 56.0693H445.086ZM449.296 53.267L450.684 49.3621H458.132L459.52 53.267H449.296Z" fill="#4493F8"/>
<path d="M465.479 56.0693V39.9903H473.274C474.786 39.9903 476.089 40.2353 477.183 40.7254C478.294 41.2154 479.15 41.9198 479.751 42.8386C480.352 43.7421 480.653 44.814 480.653 46.0544C480.653 47.2948 480.352 48.3667 479.751 49.2702C479.15 50.1584 478.294 50.8398 477.183 51.3145C476.089 51.7892 474.786 52.0266 473.274 52.0266H468.51L470.938 49.7985V56.0693H465.479ZM475.171 56.0693L471.193 50.212H476.975L481 56.0693H475.171ZM470.938 50.3957L468.51 47.9379H472.927C473.683 47.9379 474.238 47.7695 474.593 47.4326C474.963 47.0957 475.148 46.6363 475.148 46.0544C475.148 45.4725 474.963 45.0131 474.593 44.6762C474.238 44.3393 473.683 44.1709 472.927 44.1709H468.51L470.938 41.7131V50.3957Z" fill="#4493F8"/>
<path d="M26.4938 3.96797C28.2248 -1.32265 35.7619 -1.32266 37.493 3.96796L41.0813 14.9351C41.8555 17.3012 44.0757 18.9031 46.5809 18.9031H58.1931C63.7948 18.9031 66.1239 26.0216 61.592 29.2914L52.1976 36.0695C50.1708 37.5318 49.3228 40.1237 50.0969 42.4898L53.6853 53.4569C55.4163 58.7476 49.3187 63.147 44.7867 59.8772L35.3923 53.0992C33.3656 51.6369 30.6212 51.6369 28.5944 53.0992L19.2 59.8772C14.6681 63.147 8.57046 58.7476 10.3015 53.4569L13.8898 42.4898C14.664 40.1237 13.8159 37.5318 11.7892 36.0695L2.39476 29.2914C-2.13715 26.0216 0.191944 18.9031 5.7937 18.9031H17.4058C19.911 18.9031 22.1313 17.3012 22.9054 14.9351L26.4938 3.96797Z" fill="url(#paint0_linear_1_13)"/>
<path d="M28.327 9.8501C29.481 6.32302 34.5058 6.32301 35.6598 9.85009L38.9175 19.8069C39.4336 21.3842 40.9138 22.4522 42.5839 22.4522H53.1262C56.8607 22.4522 58.4135 27.1978 55.3922 29.3777L46.8633 35.5313C45.5121 36.5062 44.9468 38.2341 45.4629 39.8115L48.7206 49.7683C49.8746 53.2953 45.8095 56.2283 42.7883 54.0485L34.2593 47.8948C32.9082 46.92 31.0786 46.92 29.7274 47.8948L21.1985 54.0485C18.1772 56.2283 14.1121 53.2953 15.2662 49.7683L18.5239 39.8115C19.04 38.2341 18.4746 36.5062 17.1235 35.5313L8.59458 29.3777C5.5733 27.1978 7.12603 22.4522 10.8605 22.4522H21.4028C23.073 22.4522 24.5531 21.3842 25.0692 19.8069L28.327 9.8501Z" fill="url(#paint1_linear_1_13)" fill-opacity="0.47"/>
</g>
<defs>
<linearGradient id="paint0_linear_1_13" x1="240.5" y1="20.9688" x2="240.5" y2="61" gradientUnits="userSpaceOnUse">
<stop stop-color="#FFC400"/>
<stop offset="0.565068" stop-color="#FF9D00"/>
</linearGradient>
<linearGradient id="paint1_linear_1_13" x1="31.9934" y1="22.3322" x2="31.9934" y2="67.5543" gradientUnits="userSpaceOnUse">
<stop offset="0.120192" stop-color="white" stop-opacity="0.59"/>
<stop offset="0.822115" stop-color="white" stop-opacity="0"/>
</linearGradient>
<clipPath id="clip0_1_13">
<rect width="481" height="61" fill="white"/>
</clipPath>
</defs>
</svg>
